<svg width="28" height="28" viewBox="0 0 28 28" fill="none" xmlns="http://www.w3.org/2000/svg">
<path fill-rule="evenodd" clip-rule="evenodd" d="M19.0033 2.5H22.7599C24.3142 2.5 25.575 3.77178 25.575 5.34071V9.12872C25.575 10.6965 24.3142 11.9694 22.7599 11.9694H19.0033C17.4479 11.9694 16.1871 10.6965 16.1871 9.12872V5.34071C16.1871 3.77178 17.4479 2.5 19.0033 2.5Z" stroke="#47BCE5" stroke-width="1.5" stroke-linecap="round" stroke-linejoin="round"/>
<path fill-rule="evenodd" clip-rule="evenodd" d="M5.39124 2.5H9.14665C10.7021 2.5 11.9629 3.77178 11.9629 5.34071V9.12872C11.9629 10.6965 10.7021 11.9694 9.14665 11.9694H5.39124C3.83582 11.9694 2.57498 10.6965 2.57498 9.12872V5.34071C2.57498 3.77178 3.83582 2.5 5.39124 2.5Z" stroke="#47BCE5" stroke-width="1.5" stroke-linecap="round" stroke-linejoin="round"/>
<path fill-rule="evenodd" clip-rule="evenodd" d="M5.39124 16.0305H9.14665C10.7021 16.0305 11.9629 17.3023 11.9629 18.8724V22.6592C11.9629 24.2282 10.7021 25.4999 9.14665 25.4999H5.39124C3.83582 25.4999 2.57498 24.2282 2.57498 22.6592V18.8724C2.57498 17.3023 3.83582 16.0305 5.39124 16.0305Z" stroke="#47BCE5" stroke-width="1.5" stroke-linecap="round" stroke-linejoin="round"/>
<path fill-rule="evenodd" clip-rule="evenodd" d="M19.0033 16.0305H22.7599C24.3142 16.0305 25.575 17.3023 25.575 18.8724V22.6592C25.575 24.2282 24.3142 25.4999 22.7599 25.4999H19.0033C17.4479 25.4999 16.1871 24.2282 16.1871 22.6592V18.8724C16.1871 17.3023 17.4479 16.0305 19.0033 16.0305Z" stroke="#47BCE5" stroke-width="1.5" stroke-linecap="round" stroke-linejoin="round"/>
</svg>
