<svg width="28" height="28" viewBox="0 0 28 28" fill="none" xmlns="http://www.w3.org/2000/svg">
<path fill-rule="evenodd" clip-rule="evenodd" d="M4.08431 16.0849V15.8294C4.12179 15.0735 4.36404 14.3412 4.78609 13.7078C5.4886 12.947 5.9695 12.0146 6.17834 11.0086C6.17834 10.231 6.17834 9.44234 6.24626 8.66478C6.59715 4.9214 10.2985 2.33325 13.9546 2.33325H14.0451C17.7012 2.33325 21.4026 4.9214 21.7648 8.66478C21.8327 9.44234 21.7648 10.231 21.8214 11.0086C22.033 12.0169 22.5134 12.9522 23.2136 13.7189C23.6388 14.3467 23.8815 15.0764 23.9154 15.8294V16.0738C23.9407 17.0893 23.5909 18.0795 22.9306 18.8619C22.0581 19.7766 20.8741 20.3457 19.6028 20.4614C15.8748 20.8613 12.1135 20.8613 8.38557 20.4614C7.11568 20.3407 5.93339 19.7725 5.05775 18.8619C4.40768 18.0789 4.06262 17.0946 4.08431 16.0849Z" stroke="#393F42" stroke-width="1.5" stroke-linecap="round" stroke-linejoin="round"/>
<path d="M11.1474 24.3269C11.7299 25.058 12.5853 25.5312 13.5243 25.6417C14.4632 25.7522 15.4084 25.4909 16.1505 24.9156C16.3787 24.7455 16.5841 24.5477 16.7617 24.3269" stroke="#393F42" stroke-width="1.5" stroke-linecap="round" stroke-linejoin="round"/>
</svg>
